<svg version="1.1" id="Layer_1" xmlns="http://www.w3.org/2000/svg" xmlns:xlink="http://www.w3.org/1999/xlink" x="0px" y="0px"
	 width="100%" viewBox="0 0 64 64" enable-background="new 0 0 64 64" xml:space="preserve">
<path fill="#000000" opacity="1.000000" stroke="none" 
	d="
M48.004738,65.000000 
	C32.003754,65.000000 16.503887,65.000000 1.003018,65.000000 
	C1.002012,43.668194 1.002012,22.336390 1.001006,1.003438 
	C22.331619,1.002292 43.663239,1.002292 64.996140,1.001146 
	C64.997429,22.331430 64.997429,43.662861 64.998718,64.997147 
	C59.501953,65.000000 54.003902,65.000000 48.004738,65.000000 
M30.174286,54.997742 
	C31.312948,54.892395 32.451611,54.787045 33.546215,54.685772 
	C33.225212,51.108921 32.922554,47.736469 32.607128,44.221771 
	C29.635757,44.045784 26.953871,43.886940 23.678808,43.692966 
	C26.865704,38.063885 33.892048,44.142719 36.632408,38.235840 
	C32.179508,38.039207 28.210655,37.863949 24.241804,37.688694 
	C24.267601,37.071079 24.293400,36.453468 24.319197,35.835854 
	C33.119095,33.646835 41.913788,35.527817 50.998856,37.320946 
	C50.998856,31.316339 51.030563,25.672213 50.989433,20.028614 
	C50.952435,14.951821 47.661324,11.242627 42.592113,11.064816 
	C36.278114,10.843343 29.945017,10.845603 23.630337,11.056190 
	C17.559425,11.258647 15.041082,14.044203 15.011559,20.102245 
	C14.970213,28.586523 14.979338,37.071224 15.007642,45.555611 
	C15.029670,52.158535 17.606865,54.763126 24.285147,54.988426 
	C25.946907,55.044491 27.612112,54.998497 30.174286,54.997742 
M49.236744,57.818214 
	C49.836746,58.387573 50.345905,59.241795 51.055332,59.468048 
	C52.618576,59.966587 54.282856,60.148342 55.905899,60.459366 
	C56.064747,58.639694 57.044838,55.887405 56.231785,55.171448 
	C53.562073,52.820560 54.023579,50.142361 53.902031,47.219791 
	C53.724072,42.940746 50.809826,40.368431 46.989166,39.161518 
	C42.865540,37.858902 38.133274,40.077190 36.050316,43.926090 
	C34.095062,47.539001 35.036179,50.638145 37.316807,53.953575 
	C40.347290,58.359089 44.831459,56.327137 49.236744,57.818214 
z"/>
<path fill="#B4272E" opacity="1.000000" stroke="none" 
	d="
M29.725010,54.998577 
	C27.612112,54.998497 25.946907,55.044491 24.285147,54.988426 
	C17.606865,54.763126 15.029670,52.158535 15.007642,45.555611 
	C14.979338,37.071224 14.970213,28.586523 15.011559,20.102245 
	C15.041082,14.044203 17.559425,11.258647 23.630337,11.056190 
	C29.945017,10.845603 36.278114,10.843343 42.592113,11.064816 
	C47.661324,11.242627 50.952435,14.951821 50.989433,20.028614 
	C51.030563,25.672213 50.998856,31.316339 50.998856,37.320946 
	C41.913788,35.527817 33.119095,33.646835 24.319197,35.835854 
	C24.293400,36.453468 24.267601,37.071079 24.241804,37.688694 
	C28.210655,37.863949 32.179508,38.039207 36.632408,38.235840 
	C33.892048,44.142719 26.865704,38.063885 23.678808,43.692966 
	C26.953871,43.886940 29.635757,44.045784 32.607128,44.221771 
	C32.922554,47.736469 33.225212,51.108921 33.546215,54.685772 
	C32.451611,54.787045 31.312948,54.892395 29.725010,54.998577 
M32.544426,31.999935 
	C35.574429,31.264137 39.404648,33.711185 42.233650,29.432798 
	C35.859085,29.432798 30.106699,29.432798 24.354311,29.432798 
	C24.282333,29.988932 24.210356,30.545067 24.138378,31.101200 
	C26.629629,31.400774 29.120880,31.700346 32.544426,31.999935 
M41.581047,24.479206 
	C35.934010,21.170786 30.148586,23.862806 24.444517,23.027246 
	C24.425722,23.640169 24.406925,24.253090 24.388130,24.866013 
	C29.853571,24.866013 35.319012,24.866013 41.581047,24.479206 
z"/>
<path fill="#B4272E" opacity="1.000000" stroke="none" 
	d="
M48.931572,57.546928 
	C44.831459,56.327137 40.347290,58.359089 37.316807,53.953575 
	C35.036179,50.638145 34.095062,47.539001 36.050316,43.926090 
	C38.133274,40.077190 42.865540,37.858902 46.989166,39.161518 
	C50.809826,40.368431 53.724072,42.940746 53.902031,47.219791 
	C54.023579,50.142361 53.562073,52.820560 56.231785,55.171448 
	C57.044838,55.887405 56.064747,58.639694 55.905899,60.459366 
	C54.282856,60.148342 52.618576,59.966587 51.055332,59.468048 
	C50.345905,59.241795 49.836746,58.387573 48.931572,57.546928 
z"/>
<path fill="#000000" opacity="1.000000" stroke="none" 
	d="
M32.078278,31.999928 
	C29.120880,31.700346 26.629629,31.400774 24.138378,31.101200 
	C24.210356,30.545067 24.282333,29.988932 24.354311,29.432798 
	C30.106699,29.432798 35.859085,29.432798 42.233650,29.432798 
	C39.404648,33.711185 35.574429,31.264137 32.078278,31.999928 
z"/>
<path fill="#000000" opacity="1.000000" stroke="none" 
	d="
M41.182747,24.672609 
	C35.319012,24.866013 29.853571,24.866013 24.388130,24.866013 
	C24.406925,24.253090 24.425722,23.640169 24.444517,23.027246 
	C30.148586,23.862806 35.934010,21.170786 41.182747,24.672609 
z"/>
</svg>