<svg version="1.1" id="Layer_1" xmlns="http://www.w3.org/2000/svg" xmlns:xlink="http://www.w3.org/1999/xlink" x="0px" y="0px"
	 width="100%" viewBox="0 0 64 64" enable-background="new 0 0 64 64" xml:space="preserve">
<path fill="#000000" opacity="1.000000" stroke="none" 
	d="
M41.000072,65.000000 
	C27.333387,65.000000 14.166720,65.000000 1.000040,65.000000 
	C1.000027,43.666683 1.000027,22.333368 1.000013,1.000040 
	C22.333315,1.000027 43.666630,1.000027 64.999954,1.000013 
	C64.999969,22.333315 64.999969,43.666630 64.999985,64.999969 
	C57.166698,65.000000 49.333393,65.000000 41.000072,65.000000 
M37.421322,30.108135 
	C37.771904,28.534735 38.122482,26.961334 38.497524,25.278168 
	C40.649773,25.068041 42.686272,24.869213 45.546551,24.589958 
	C41.108021,18.552103 37.143444,13.158978 32.843300,7.309375 
	C28.513302,13.423162 24.698282,18.809816 20.580132,24.624479 
	C23.507774,24.927525 25.581976,25.142227 27.897465,25.381908 
	C28.774237,32.943451 29.620958,40.245842 30.470890,47.575920 
	C32.306561,47.575920 34.000954,47.575920 35.748886,47.575920 
	C36.223251,41.769691 36.665512,36.356422 37.421322,30.108135 
M53.180866,42.032173 
	C53.023895,45.603188 52.866920,49.174198 52.713406,52.666634 
	C39.243931,52.666634 26.356647,52.666634 12.975697,52.666634 
	C12.975697,49.384079 13.104123,46.419643 12.893860,43.479427 
	C12.834318,42.646816 11.785905,41.884926 11.191009,41.090599 
	C10.473372,41.757298 9.162628,42.399742 9.134212,43.094624 
	C8.947724,47.655029 9.038098,52.226761 9.038098,56.648621 
	C25.461761,56.648621 41.009109,56.648621 56.973701,56.648621 
	C56.973701,52.015957 57.138500,47.714771 56.825462,43.448643 
	C56.767448,42.658043 54.782619,42.008827 53.180866,42.032173 
z"/>
<path fill="#B4272E" opacity="1.000000" stroke="none" 
	d="
M37.264549,30.525644 
	C36.665512,36.356422 36.223251,41.769691 35.748886,47.575920 
	C34.000954,47.575920 32.306561,47.575920 30.470890,47.575920 
	C29.620958,40.245842 28.774237,32.943451 27.897465,25.381908 
	C25.581976,25.142227 23.507774,24.927525 20.580132,24.624479 
	C24.698282,18.809816 28.513302,13.423162 32.843300,7.309375 
	C37.143444,13.158978 41.108021,18.552103 45.546551,24.589958 
	C42.686272,24.869213 40.649773,25.068041 38.497524,25.278168 
	C38.122482,26.961334 37.771904,28.534735 37.264549,30.525644 
z"/>
<path fill="#B4272E" opacity="1.000000" stroke="none" 
	d="
M53.433975,41.663265 
	C54.782619,42.008827 56.767448,42.658043 56.825462,43.448643 
	C57.138500,47.714771 56.973701,52.015957 56.973701,56.648621 
	C41.009109,56.648621 25.461761,56.648621 9.038098,56.648621 
	C9.038098,52.226761 8.947724,47.655029 9.134212,43.094624 
	C9.162628,42.399742 10.473372,41.757298 11.191010,41.090599 
	C11.785905,41.884926 12.834318,42.646816 12.893860,43.479427 
	C13.104123,46.419643 12.975697,49.384079 12.975697,52.666634 
	C26.356647,52.666634 39.243931,52.666634 52.713406,52.666634 
	C52.866920,49.174198 53.023895,45.603188 53.433975,41.663265 
z"/>
</svg>