<svg version="1.1" id="Layer_1" xmlns="http://www.w3.org/2000/svg" xmlns:xlink="http://www.w3.org/1999/xlink" x="0px" y="0px"
	 width="100%" viewBox="0 0 64 64" enable-background="new 0 0 64 64" xml:space="preserve">
<path fill="#000000" opacity="1.000000" stroke="none" 
	d="
M44.000557,65.000000 
	C29.333736,65.000000 15.167089,65.000000 1.000331,65.000000 
	C1.000221,43.666843 1.000221,22.333683 1.000110,1.000394 
	C22.333130,1.000262 43.666260,1.000262 64.999542,1.000131 
	C64.999695,22.333101 64.999695,43.666203 64.999847,64.999649 
	C58.166912,65.000000 51.333820,65.000000 44.000557,65.000000 
M41.498199,59.000118 
	C47.243683,59.000118 52.989170,59.000118 59.000118,59.000118 
	C59.000118,50.330616 59.100029,42.516838 58.974411,34.706688 
	C58.822960,25.290319 61.002853,15.422323 53.485687,7.004162 
	C40.736042,7.004162 27.425613,6.961871 14.116409,7.070184 
	C12.798842,7.080907 10.735395,7.664157 10.312696,8.579497 
	C8.892796,11.654246 7.319612,14.960576 7.145939,18.249092 
	C6.707576,26.549559 7.000115,34.888626 6.999902,43.212227 
	C6.999772,48.314735 6.999878,53.417244 6.999878,59.000118 
	C18.601236,59.000118 29.550135,59.000118 41.498199,59.000118 
z"/>
<path fill="#B4272E" opacity="1.000000" stroke="none" 
	d="
M40.998615,59.000118 
	C29.550135,59.000118 18.601236,59.000118 6.999878,59.000118 
	C6.999878,53.417244 6.999772,48.314735 6.999902,43.212227 
	C7.000115,34.888626 6.707576,26.549559 7.145939,18.249092 
	C7.319612,14.960576 8.892796,11.654246 10.312696,8.579497 
	C10.735395,7.664157 12.798842,7.080907 14.116409,7.070184 
	C27.425613,6.961871 40.736042,7.004162 53.485687,7.004162 
	C61.002853,15.422323 58.822960,25.290319 58.974411,34.706688 
	C59.100029,42.516838 59.000118,50.330616 59.000118,59.000118 
	C52.989170,59.000118 47.243683,59.000118 40.998615,59.000118 
M22.975996,31.969240 
	C22.975996,31.969240 23.037737,31.891396 22.351923,32.223785 
	C18.689436,37.536556 18.962736,43.865520 22.976076,48.030914 
	C22.976076,48.030914 22.913412,47.953903 23.021276,48.646389 
	C23.696312,49.126457 24.371346,49.606529 24.969309,50.024097 
	C24.969309,50.024097 24.891533,49.962475 25.223816,50.648491 
	C28.939177,54.218845 33.473145,53.285183 37.715714,52.451694 
	C39.026943,52.194103 39.922585,49.821072 41.302013,48.147598 
	C41.673180,47.769413 42.044346,47.391232 43.136326,47.602978 
	C46.883904,43.911808 47.296982,35.876919 43.802010,32.442516 
	C43.322361,31.971180 42.226990,32.126427 41.282528,31.853596 
	C41.282528,31.853596 41.008450,31.583385 41.632099,30.923328 
	C37.700851,25.622461 29.895451,25.209534 24.969116,29.975994 
	C24.969116,29.975994 25.046103,29.913414 24.353622,30.021257 
	C23.873543,30.696299 23.393461,31.371340 22.975996,31.969240 
M23.598389,11.000123 
	C21.933290,11.000881 20.259306,11.112279 18.604940,10.979414 
	C15.137618,10.700945 13.473790,12.195980 13.421532,15.336587 
	C18.087154,18.041485 25.560753,11.874207 27.618080,20.990128 
	C30.537685,20.990128 33.360271,21.102533 36.164963,20.927801 
	C37.118046,20.868427 38.736187,20.208679 38.839848,19.612705 
	C39.534393,15.619646 42.385715,15.918650 45.255119,15.987960 
	C47.696609,16.046932 50.140652,16.000139 52.698353,16.000139 
	C52.431450,11.878822 50.432899,10.865436 47.051796,10.945734 
	C39.563087,11.123584 32.067234,11.000487 23.598389,11.000123 
z"/>
<path fill="#B4272E" opacity="1.000000" stroke="none" 
	d="
M42.415512,47.013046 
	C42.044346,47.391232 41.673180,47.769413 40.823112,48.517475 
	C38.061836,49.591457 35.803936,50.759338 33.490849,50.881382 
	C30.648483,51.031349 27.760052,50.308208 24.891533,49.962475 
	C24.891533,49.962475 24.969309,50.024097 25.180138,49.677639 
	C24.565117,48.872086 23.739265,48.412994 22.913412,47.953903 
	C22.913412,47.953903 22.976076,48.030914 23.197376,47.671288 
	C23.291697,42.171570 23.164717,37.031483 23.037737,31.891396 
	C23.037737,31.891396 22.975996,31.969240 23.322388,32.180073 
	C24.127886,31.565075 24.586994,30.739244 25.046103,29.913414 
	C25.046103,29.913414 24.969116,29.975994 25.327801,30.197994 
	C30.978863,28.370567 36.156929,27.826670 41.008450,31.583385 
	C41.008450,31.583385 41.282528,31.853596 41.585037,32.254463 
	C45.019924,37.332523 44.845734,42.131306 42.415512,47.013046 
M33.247696,41.765499 
	C34.246376,42.499912 35.245052,43.234329 36.398602,44.082634 
	C35.133038,39.684021 34.074978,36.006611 33.016918,32.329201 
	C32.647552,32.355747 32.278187,32.382294 31.908823,32.408840 
	C32.187992,35.328140 32.467163,38.247437 33.247696,41.765499 
z"/>
<path fill="#000000" opacity="1.000000" stroke="none" 
	d="
M24.086342,11.000122 
	C32.067234,11.000487 39.563087,11.123584 47.051796,10.945734 
	C50.432899,10.865436 52.431450,11.878822 52.698353,16.000139 
	C50.140652,16.000139 47.696609,16.046932 45.255119,15.987960 
	C42.385715,15.918650 39.534393,15.619646 38.839848,19.612705 
	C38.736187,20.208679 37.118046,20.868427 36.164963,20.927801 
	C33.360271,21.102533 30.537685,20.990128 27.618080,20.990128 
	C25.560753,11.874207 18.087154,18.041485 13.421532,15.336587 
	C13.473790,12.195980 15.137618,10.700945 18.604940,10.979414 
	C20.259306,11.112279 21.933290,11.000881 24.086342,11.000122 
z"/>
<path fill="#000000" opacity="1.000000" stroke="none" 
	d="
M41.320274,31.253357 
	C36.156929,27.826670 30.978863,28.370567 25.288956,30.228846 
	C29.895451,25.209534 37.700851,25.622461 41.320274,31.253357 
z"/>
<path fill="#000000" opacity="1.000000" stroke="none" 
	d="
M25.057674,50.305481 
	C27.760052,50.308208 30.648483,51.031349 33.490849,50.881382 
	C35.803936,50.759338 38.061836,49.591457 40.676357,48.651978 
	C39.922585,49.821072 39.026943,52.194103 37.715714,52.451694 
	C33.473145,53.285183 28.939177,54.218845 25.057674,50.305481 
z"/>
<path fill="#000000" opacity="1.000000" stroke="none" 
	d="
M42.775917,47.308014 
	C44.845734,42.131306 45.019924,37.332523 41.652115,32.323452 
	C42.226990,32.126427 43.322361,31.971180 43.802010,32.442516 
	C47.296982,35.876919 46.883904,43.911808 42.775917,47.308014 
z"/>
<path fill="#000000" opacity="1.000000" stroke="none" 
	d="
M22.694830,32.057590 
	C23.164717,37.031483 23.291697,42.171570 23.228271,47.710144 
	C18.962736,43.865520 18.689436,37.536556 22.694830,32.057590 
z"/>
<path fill="#000000" opacity="1.000000" stroke="none" 
	d="
M24.699863,29.967335 
	C24.586994,30.739244 24.127886,31.565075 23.291080,32.218643 
	C23.393461,31.371340 23.873543,30.696299 24.699863,29.967335 
z"/>
<path fill="#000000" opacity="1.000000" stroke="none" 
	d="
M22.967344,48.300148 
	C23.739265,48.412994 24.565117,48.872086 25.218674,49.708889 
	C24.371346,49.606529 23.696312,49.126457 22.967344,48.300148 
z"/>
<path fill="#000000" opacity="1.000000" stroke="none" 
	d="
M32.997013,41.466118 
	C32.467163,38.247437 32.187992,35.328140 31.908823,32.408840 
	C32.278187,32.382294 32.647552,32.355747 33.016918,32.329201 
	C34.074978,36.006611 35.133038,39.684021 36.398602,44.082634 
	C35.245052,43.234329 34.246376,42.499912 32.997013,41.466118 
z"/>
</svg>